<?xml version="1.0" encoding="utf-8"?>
<!-- Generator: Adobe Illustrator 25.0.1, SVG Export Plug-In . SVG Version: 6.00 Build 0)  -->
<svg version="1.1" id="Calque_1" xmlns="http://www.w3.org/2000/svg" xmlns:xlink="http://www.w3.org/1999/xlink" x="0px" y="0px"
	 viewBox="0 0 128 128" style="enable-background:new 0 0 128 128;" xml:space="preserve">
<style type="text/css">
	.st0{fill:#FFFFFF;}
</style>
<path class="st0" d="M123.9,30.9c-4.2,1.9-8.7,3.1-13.5,3.7c4.8-2.9,8.6-7.5,10.3-12.9c-4.5,2.7-9.5,4.6-14.9,5.6
	c-4.3-4.5-10.3-7.3-17.1-7.3c-12.9,0-23.4,10.4-23.4,23.2c0,1.8,0.2,3.6,0.6,5.3c-19.5-1-36.7-10.2-48.3-24.3
	c-2,3.4-3.2,7.5-3.2,11.7c0,8.1,4.1,15.2,10.4,19.3c-3.8-0.1-7.5-1.2-10.6-2.9c0,0.1,0,0.2,0,0.3c0,11.3,8.1,20.6,18.8,22.8
	c-2,0.5-4,0.8-6.2,0.8c-1.5,0-3-0.2-4.4-0.4c3,9.2,11.6,15.9,21.9,16.1c-8,6.2-18.1,9.9-29.1,9.9c-1.9,0-3.8-0.1-5.6-0.3
	C20,108.1,32.3,112,45.6,112c43.1,0,66.7-35.4,66.7-66.1c0-1,0-2-0.1-3C116.8,39.7,120.7,35.6,123.9,30.9"/>
</svg>
